<?xml version="1.0" encoding="UTF-8"?>
<svg width="980px" height="680px" viewBox="0 0 980 680" version="1.1" xmlns="http://www.w3.org/2000/svg" xmlns:xlink="http://www.w3.org/1999/xlink">
    <title>CH Postfinance</title>
    <defs>
        <rect id="path-1" x="0" y="0" width="900" height="600" rx="80"></rect>
        <filter x="-6.7%" y="-10.0%" width="113.3%" height="120.0%" filterUnits="objectBoundingBox" id="filter-2">
            <feMorphology radius="2.5" operator="dilate" in="SourceAlpha" result="shadowSpreadOuter1"></feMorphology>
            <feOffset dx="0" dy="0" in="shadowSpreadOuter1" result="shadowOffsetOuter1"></feOffset>
            <feGaussianBlur stdDeviation="17.5" in="shadowOffsetOuter1" result="shadowBlurOuter1"></feGaussianBlur>
            <feColorMatrix values="0 0 0 0 0   0 0 0 0 0   0 0 0 0 0  0 0 0 0.5 0" type="matrix" in="shadowBlurOuter1"></feColorMatrix>
        </filter>
    </defs>
    <g id="CH-Postfinance" stroke="none" stroke-width="1" fill="none" fill-rule="evenodd">
        <g transform="translate(40, 40)">
            <g id="Rectangle">
                <use fill="black" fill-opacity="1" filter="url(#filter-2)" xlink:href="#path-1"></use>
                <use fill="#FFCC00" fill-rule="evenodd" xlink:href="#path-1"></use>
            </g>
            <g id="Logo" transform="translate(76.326, 234.2396)" fill-rule="nonzero">
                <g id="g10" transform="translate(377.5444, 63.5322) scale(-1, 1) rotate(-180) translate(-377.5444, -63.5322)translate(0, 0)">
                    <g id="g12" transform="translate(-0, 0)">
                        <g id="g16" transform="translate(0, 0)">
                            <polyline id="path24" fill="#FFFFFF" points="638.040423 0 645.858714 37.0201174 7.82528569 37.0201174 0 0 638.040423 0"></polyline>
                            <path d="M714.888893,87.4758033 C714.888893,87.4758033 723.444353,126.696396 723.56273,127.064442 L669.195208,127.064442 C669.195208,126.816387 657.954734,75.0160415 657.954734,74.7701393 C658.073112,74.7701393 671.885604,74.7701393 671.885604,74.7701393 C672.003982,74.7701393 680.435683,113.869126 680.435683,113.869126 L706.823086,113.869126 C706.823086,113.869126 698.515144,74.6501476 698.273008,74.4020931 C698.515144,74.4020931 738.467524,74.4020931 738.467524,74.4020931 L733.215871,50.2138192 C733.215871,50.2138192 693.387249,50.2138192 693.25811,50.2138192 C693.25811,49.967917 685.197684,13.3155767 685.197684,13.3155767 C685.197684,13.3155767 655.264338,13.3155767 655.022202,13.3155767 C655.022202,13.1955851 652.331807,0.121928745 652.213429,-5.68434189e-14 L696.680294,-5.68434189e-14 C696.680294,0.121928745 704.627723,37.0201174 704.627723,37.0201174 C704.627723,37.0201174 744.332587,37.0201174 744.580103,37.0201174 C744.580103,37.1422614 755.08879,87.2342057 755.08879,87.4758033 L714.888893,87.4758033" id="path26" fill="#ED1C24"></path>
                            <path d="M616.506494,75.8672828 C622.247799,75.8672828 626.159635,71.9597517 626.159635,65.4839686 C626.159635,64.3868251 626.035876,63.4091352 625.917499,62.3098395 L601.112048,62.3098395 C603.678686,70.4924097 609.172475,75.8672828 616.506494,75.8672828 Z M628.84465,27.2405281 L632.024698,41.7810421 C626.649287,39.952111 621.392253,38.4874594 614.677025,38.4874594 C606.853353,38.4874594 600.014367,41.1713984 599.648473,50.5813273 L639.966747,50.5813273 C641.430322,55.3487089 642.285868,60.1090956 642.285868,64.5062787 C642.285868,77.948035 634.467577,88.9469118 617.727934,88.9469118 C595.978773,88.9469118 582.785071,71.1020534 582.785071,51.4325686 C582.785071,34.5756237 594.025545,24.6760427 611.496977,24.6760427 C618.58348,24.6760427 624.201026,25.7796431 628.84465,27.2405281 L628.84465,27.2405281 L628.84465,27.2405281 Z M562.504866,39.5846029 C554.562817,39.5846029 549.187406,43.0040961 549.187406,52.8999105 C549.187406,64.5062787 556.516045,74.1604956 568.127794,74.1604956 C571.792113,74.1604956 575.946084,73.0611998 580.100056,71.4700996 L583.032587,85.3988176 C578.265206,87.1077571 572.642278,88.3313492 567.024731,88.3313492 C547.842208,88.3313492 531.468458,74.0383516 531.468458,52.0422123 C531.468458,33.9622134 542.590555,25.4137493 558.593031,25.4137493 C563.968442,25.4137493 568.488307,26.3887488 571.792113,27.7301802 L574.96678,42.0290966 C571.302461,40.6838987 567.266867,39.5846029 562.504866,39.5846029 L562.504866,39.5846029 L562.504866,39.5846029 Z M478.081317,26.5108927 L484.80085,57.4230042 C487.486941,69.8833041 493.599521,74.1604956 499.951008,74.1604956 C508.137883,74.1604956 509.115573,68.047916 507.524473,61.0867854 L500.193144,26.5108927 L517.666727,26.5108927 L525.36126,61.9423314 C529.149337,79.6569745 520.965153,88.9469118 508.137883,88.9469118 C501.048151,88.9469118 494.209165,86.1349099 488.342487,79.9028767 L489.929283,87.1077571 L473.681982,87.1077571 L460.608272,26.5108927 L478.081317,26.5108927 L478.081317,26.5108927 Z M415.283709,43.981786 C415.283709,50.0873706 420.658044,53.5138589 429.574016,53.5138589 C431.289413,53.5138589 435.070495,53.3874103 438.496445,52.8999105 L437.760891,49.478265 C435.680139,42.2749988 429.822071,37.3817067 422.86094,37.3817067 C417.847656,37.3817067 415.283709,39.8262004 415.283709,43.981786 L415.283709,43.981786 Z M432.144959,88.5794037 C424.07969,88.5794037 415.893353,86.7440156 413.206723,85.8890077 L410.27473,71.8376077 C414.177956,72.9347512 421.877331,75.0160415 428.722775,75.0160415 C437.883035,75.0160415 441.183075,72.2056539 441.183075,67.4388103 C441.183075,66.5870309 441.183075,65.6055745 440.940939,64.6327273 L440.693423,63.4091352 C436.296239,63.896635 432.144959,64.2603765 430.18366,64.2603765 C412.839215,64.2603765 398.914264,57.5451482 398.914264,41.6588981 C398.914264,31.2761221 406.97469,25.0435508 417.480148,25.0435508 C424.935235,25.0435508 431.289413,27.9760824 435.440694,32.8629176 L434.095496,26.5108927 L449.611547,26.5108927 L457.188778,61.206239 C457.798422,63.7771814 458.04002,66.4611204 458.04002,69.0256058 C458.04002,79.4148389 452.301943,88.5794037 432.144959,88.5794037 L432.144959,88.5794037 L432.144959,88.5794037 Z M347.474969,26.5108927 L354.192888,57.4230042 C356.883284,69.8833041 362.986716,74.1604956 369.34735,74.1604956 C377.534225,74.1604956 378.509225,68.047916 376.924581,61.0867854 L369.588948,26.5108927 L387.059841,26.5108927 L394.752759,61.9423314 C398.542451,79.6569745 390.359881,88.9469118 377.534225,88.9469118 C370.438037,88.9469118 363.59636,86.1349099 357.734525,79.9028767 L359.321321,87.1077571 L343.07402,87.1077571 L330.000309,26.5108927 L347.474969,26.5108927 L347.474969,26.5108927 Z M316.199116,103.849015 C315.827303,98.3530741 319.862897,94.0753445 325.237232,94.0753445 C331.223363,94.0753445 335.500555,98.3530741 335.862144,103.849015 C336.232343,109.345494 332.201053,113.623223 326.824028,113.623223 C320.840049,113.623223 316.562858,109.345494 316.199116,103.849015 L316.199116,103.849015 Z M313.750856,87.1077571 L300.679298,26.5108927 L318.0302,26.5108927 L331.10391,87.1077571 L313.750856,87.1077571 Z M264.388009,26.5108927 L271.229686,58.1547919 L297.625161,58.1547919 L300.805209,73.6708435 L274.531878,73.6708435 L278.567472,93.0981927 L306.301688,93.0981927 L309.721181,108.616397 L263.906966,108.616397 L246.556064,26.5108927 L264.388009,26.5108927 Z M247.163556,73.7924494 L249.975558,87.1077571 L231.285915,87.1077571 L234.947006,103.969007 L216.740558,99.9398697 L205.37794,48.1389859 C202.206501,33.4725613 210.264775,25.4137493 224.925281,25.4137493 C227.985875,25.4137493 233.112156,26.0212407 236.782394,27.2405281 L239.714388,40.5617547 C236.782394,39.8262004 233.112156,39.0949508 229.940717,39.0949508 C224.925281,39.0949508 221.383644,40.8038903 222.609388,46.9159319 L228.353384,73.7924494 L247.163556,73.7924494 Z M180.943764,44.3492941 C180.943764,39.4586923 174.959785,38.606913 169.950806,38.606913 C163.595015,38.606913 156.51174,40.3137002 152.728505,41.5394446 L149.790055,27.8560907 C155.2903,26.5108927 162.254121,25.4137493 168.849896,25.4137493 C184.485401,25.4137493 197.197522,31.2761221 197.197522,45.9366277 C197.197522,64.8743249 174.472286,61.5742852 174.472286,70.0027577 C174.472286,73.7924494 178.137681,75.1376474 183.875758,75.1376474 C189.372236,75.1376474 197.078069,72.9347512 199.639864,72.2056539 L202.571857,86.0084613 C197.319666,87.4758033 191.087633,88.3313492 185.464705,88.3313492 C168.486155,88.3313492 158.224446,80.754118 158.224446,68.1700599 C158.224446,49.7263195 180.943764,52.7777666 180.943764,44.3492941 L180.943764,44.3492941 L180.943764,44.3492941 Z M115.214162,24.6760427 C134.397762,24.6760427 147.347713,38.606913 150.279707,56.809594 C153.335997,75.0160415 143.196433,88.9469118 124.010681,88.9469118 C104.830848,88.9469118 91.8792819,75.0160415 88.9467503,56.809594 C85.8931509,38.606913 96.0343295,24.6760427 115.214162,24.6760427 L115.214162,24.6760427 L115.214162,24.6760427 Z M116.807415,38.7269046 C109.839827,38.7269046 104.343348,44.2255359 106.905143,56.809594 C109.469629,69.3931139 115.58167,74.8895929 122.545491,74.8895929 C129.510926,74.8895929 135.009558,69.2736604 132.319162,56.809594 C129.752524,44.3492941 123.768545,38.7269046 116.807415,38.7269046 L116.807415,38.7269046 Z M43.1303833,51.5590172 L50.8297585,51.5590172 C75.3876928,51.5590172 89.0731989,63.6507328 89.0731989,83.812022 C89.0731989,98.8405739 78.4353733,108.616397 60.2332304,108.616397 L37.5144508,108.616397 L20.1632263,26.5108927 L37.7560483,26.5108927 L43.1303833,51.5590172 L43.1303833,51.5590172 Z M46.1845208,66.5870309 L51.9269019,93.5856925 L59.2582309,93.5856925 C67.3229619,93.5856925 71.2283406,90.2856528 71.2283406,82.588968 C71.2283406,72.6931536 65.0006121,66.5870309 53.5201544,66.5870309 L46.1845208,66.5870309" id="path28" fill="#231F20"></path>
                        </g>
                    </g>
                </g>
            </g>
        </g>
    </g>
</svg>